<mxfile host="Electron" modified="2024-02-16T08:52:01.382Z" agent="Mozilla/5.0 (Windows NT 10.0; Win64; x64) AppleWebKit/537.36 (KHTML, like Gecko) draw.io/21.2.8 Chrome/112.0.5615.165 Electron/24.2.0 Safari/537.36" etag="2y5PGrTk49aL-LY7CwJd" version="21.2.8" type="device">
  <diagram name="Page-1" id="2XWkQP5S-hDbL94sL5Vg">
    <mxGraphModel dx="2058" dy="1180" grid="1" gridSize="10" guides="1" tooltips="1" connect="1" arrows="1" fold="1" page="1" pageScale="1" pageWidth="3300" pageHeight="4681" background="#999999" math="0" shadow="0">
      <root>
        <mxCell id="0" />
        <mxCell id="1" parent="0" />
        <mxCell id="APLwThIm-aDqV8bCMrbt-1" value="SQLite" style="rounded=0;whiteSpace=wrap;html=1;fontSize=25;fillColor=#dae8fc;strokeColor=#6c8ebf;" parent="1" vertex="1">
          <mxGeometry x="1298" y="140" width="650" height="60" as="geometry" />
        </mxCell>
        <mxCell id="hJ0c0ZOMGfOsUtsylVUy-1" value="" style="shape=image;verticalLabelPosition=bottom;labelBackgroundColor=default;verticalAlign=top;aspect=fixed;imageAspect=0;image=data:image/png,iVBORw0KGgoAAAANSUhEUgAAAiYAAAHrCAYAAAD7UFaxAAAAAXNSR0IArs4c6QAAAARnQU1BAACxjwv8YQUAAAAJcEhZcwAADsMAAA7DAcdvqGQAAByESURBVHhe7d19jCTpfRfwZ2bfzrfe2zvnLAcl2OvbPd+bySvgyI7AEBJFjiIk8kdEZIVEEYiIBAWQJaIYEzkhCBkUBAl/RAoBKwoCKQgpwo5IAInYVpxgrJA4RhBze8bHcc7Z3t1b3+3s7O5Qz1NV3dW93TNdM109v+75fG6q66mXrreuqv7e093Pbj3z1j+2l7K9vVQXsqo8Hij2RiOaftWbmmWGg+eYMOzsK3DS9ncTBDuqXuTl22r6J8bJ2uGV7G3vlcR6DY5v8+sFlcfxQ7G1NbmSerAeV4LJOHRkU6FkKrA0f43p4VXrueZhZ1+BQ2zRwDsR7xgN7eTtMcdt8ga+6Xrv7fBPCGfqPX0Bx7fPE4Fj8qEp1uWsnXfr6Wfe2rnTToaS6VqS8WA3rGSTQyNzRs/Tc/b+uju3gMG3ZyWivQjD2ozXDOIav40MpPcKBt+iwQ2/y/2esLzFjyeUUhNCumElm57WCSadUDIRPKpS/VfKk+/t08PT9p14v2FnP4R13/5NEOwo2Zy1M779ranBd2Dtj9Dgeh+h4Z/Qy3Fuf5nShI6sDSVNr32YmK8Ek4mPcqZCyWhSVTh95kw6f/7BdPbM2XT23Nl06tSppd4Zu2s+EULu7rAbdcJeYdg49VvHkIZfQ28BN2lITWxYjmpRd+/eTTs7O+n27d30yiuvpDu7u9X4eh1tUBk9ViO2nnr6mfF7xT6h5MKFC+niwxfTF67dTK/eup1uVSvY3b3bzAAwhKkoW9+/2IiIvwn7wCLOnD6dHjh3Jr3m3Nn06CMX07Vr19PLN260qeS+cDIOJnNCSa5NefTRR6sx2+mFl65ViedOPQFgZfZ5EzuRYWVT3tQ3ZT9Y1Nkzp9MfefR16fSprfT5z/9hM3YynGyXx5mhJPf30kMXLlSl7fTc/31JKAHiOZHvbZuSxk5kqjzRbu/eSc+98Pl05279SUz9VZJx7sjqYNLKAWUUSurql/zxTa4pATg+s97ATvqbmnDC+nrhpS+mhy9eLDmjmztyfzunlTqjtP2ST4rzrz1fvlOipgSIp71jVTrFk8WbOusp15y8dO16evD8g2W4zR25P64xKSNzYhlPzb++yV90BQgv37qmO9ZEDlhC1knz6s7tkjPaVNJ+rDP5HZP2Qm6G80+C869vAI7fId686vvcZEdgwslJcmtnN507d66+LJtwkge2nnzqqSakdD7SqedKl950KX3qDz5Xxs7z0IXz6czpya+qLGL3zt104+VXmiHWQ3vTaE4gOBbzzr+Dzs88vZq2ce99m3g9usecFM9cflO6+tzVqrQ1+mXO1hNPPlWdAW0YqUpNIfcvXXpT+v0/eL4Mz/PTH/ipdPnKlWZotvYf63n+/700Ws+Xb3wh/c33/Gja3j5VjyC46bu5GwfH6Qjn38YFk2zTrkf3l5Pi6ctvTFevPjcOJVWh+SinPFb9ujD6nskCHr74UHrmycf37Z5+4krpvvVPf1P6tnfW3esf/Ype6+E4zbqTLzruKPLylr1MNoPzYtKmHY/1v/Z/4n3vTZ/9n59Kz3/mf8zs8rQ8TzQf+4+/mt7+tj/ZDN0vT/vor3+4GVqWycqRusakKpRxTb8NDIvUmHzw5/9Z+uqvvpz+3W/8r7S1XS0wd6dydy+962uvpK98w8V08+aXy7znz59Pv/zRZ0v5zRdeSe/+vr+cTp06XYZn+YHve3d6//t+tBlK6asee6Yp1Z7/359qSrXu9F/4uZ8p/e//Kz9U+q38nF/44C+l9/7432vGsL/D3BzmBc52WfOmt2at86DncHL1PN/W+/1uAZt2razn/uTg8a3f8efTCy9+vhkz6XWPPJz+y699OL3xLZPva8ctB4+f+ccfSD/0I+9JH/v4bzVja/tNO6y6xqT9KKe+OPt/OWRKXszW1qn07PWb6erLL6fnXrmR/s/O9fS53Wtpd/deFXKqrvmvderswU3Zv+1PfGP6Gz/8gyVs5O4vfPf3pp/88R8bTcsB433v//uj6Tls5HF52n7yvG0o+ch/+lAJP0wrr2rTHcas5x12WfsZYplsvHwrajsYSP635HIouXHjxszu6nOfrf+9uWBy4MjBIweQbs3JEKFkniMHk7v36qv79V9xLm2dvZOu37mR/vDWF9KLr9ZNzW5NXfwPPHIrPfjowV96feszT6Vnrz7XDKX08d/+xChQ/KN/8BMliPz8v/jFMpzlaf/h1/9zeu/f/lvNGPo7ShhZpu5J4x2Eg7Tn7fS569zZDBHuSSfLdDhZZSjJjhxM2sv+0y9+Lj177YV07c6X0qvp5XR762YZv9ecU1vNyXX+4ZvpwdfW0/aTQ8c3fP3Xjj6S6XrzpTelX/n3v9oMjX3kY79Zpu3n9z7x0VKrkmtL8rz5o6I8Lsu1J7nWpe3WX58LepkX/zLeDBZ5U/Gmw7R8Hi/zXCYGr+mqdcPJKkNJtj36fkn12PbrXtVf4L7fni6vVkHkzGt205kHdtPpc7fTmaorqmW0oSR78vV/NF15+LFmaH/5Y5fHrzxWQsL0Ry65BmXa733q003pYN/8Z99VamTyx0Fv/cZ33PfRUR7/K7/8S83c6+woF/QCJ0Boed/d0Gg5H9bV85/59H1fHp3VsYby20x5q6kemu+3HrnGpFUCSdWdOZe7TjCp7gPdt7crj1wu3aJygMhBIddstN8xmSd//HNY3/kd354eeeThUW1JXt9BtS+x9bkBz5v3sDdxN3+O24LnYHtTbDtC+qrLT3W6J+d2LE/345vuxzqrsLRgUoeSOpCczf2zdTCpf+HTXvF76fbubnr11VvN8OJyDcY7/9Q7SjnXdMwKKd/89m9Kv/2JTzZD/f23T/7OqMYkd7kmZT1N35SPIyh013lc2+Pd5mTL51m3a80at0k2db9am75/x2/6OyXT3zkZ2tGDSXWO7Oy8mt726OX0xx95PH3DQ29JX3f+qfQ1r3mmjK9nqU+knFHu3buX7lbdQXLw6H58k0PHl75U/yvH+Yuv3/+93zMxPc//bX/uz9z38+D95OW1tSL5Oyv5Oy0H/aonvsNctEO9eedtmbc90+PbeefND0MIeM61efpIl+WmX0fx9+/u3bvlJ8HzfOUb3lDmiWbeF11XGU62nnjiyeZTnb3m452mXz1cunQp/f5n9m/H5J//3M+mb3nnO9IrX745OlW2SmuueTn30unTZ9P29na6U70A+UXIwST7r5/83QPbMclfSs0fr2S5liR/rNPKAeLf/usPNkO1XOPxnd/1PaWcvzSbg0orh5BcA5KX+QN/9a+X76jkMJMDTjutHW7lX/n0CTrH66AL9aC7XLQLfXp7u9t30L5AX8051fcymHcqHvZymrW8I1+am369xNy/3HjaX3r3X5z7k+D8fvgvf/Ffpb/z/p9sxhy/3I7IR37tQ+k9P/Z3537RNYeSf/hT709v/5Zvb8YczdOPNe2YVOd5qcSotuHIweRHfvgH09d/3dc0Q/fLoSR3+UXotvT633/nd9MHfvqfpO19gklfbZBZr0BxVH3uWvMu4CPf+QbSbu+s7Zu1L3m+efsIB5lx7hx0aUw8pXP+HfaSmnf6HnZ5xaZfE5u+f6uVw8kqW2UfJJjkHdi7V4WOZnhR+TrLNSttS29k7bHoczT7HL/uctf9uM86Roc5ftA1de4cdJnMO9UOe3kte3nFpl8Prvd1NiuYHPk7JuUf3Dl1unwk06fLzxFKurrHYpnHJV+0bZflZW/CcZ/eh2Ucv005Nhze1DnQvXxmdcs27/Qban0bwTW7aZb2qxwWMXXT29dRL7ZZd7JNvYBn7de8cfOOQXf8fs+d93zoqb1Epy/V/U6x6UuahutykwgmK9O9cBa5iNyBDpaP437Hsp1+0HyzdOeffm7fZbF+Zr3GedyCr/2swNE1a3x33H6r2m+Z86adCAu+NoQnmByb7kV0mAtqvztXNj3tMOvYVLOOxaw7+rxjfKLv/ifYId/5p5+y3yLaVbTzzDr9el/KvZ8Ax2p7dI2UwviLr6PxLMG8G0Me351WDn7T7afvjcaN6X6zjsmix39VvG7Ha4nH/yinVt6MbneQmetY4r5EFuXSpZfyslUP7cunxmRQi95JsiGuqD7rP4n6Hp/8Gi3zddpv/e34PtvH8u13/Pd7/bJ2+kHzDaA9VSdO1xVvw3FZ5iXKsRBM1s4JublsjFW/Xs6P1ege54GO+X3B4pBO0ht1/qVn+bVn1Qkoa0swGcyiN6tF7j7NhTbUDfDEW/S4dl+HbjdPO23ePIu89n0ctD4OJx/P6W7arOnt6zvnde7Oup85T7/P9OpbE8OLrHBDaI5ibQkmS9PeEdpuEQfdbfosi6PpHue+x3zW/NPjFl1mO1/7brTIO1J22PUxjAOOf3fyYV+q/U4PL39t0cuHULbe8sST9UtXvvA6+eXXN1+6lH725RtlMgDAMv21Cw+lZ69erbP01lZpeFWNCQAQhmACAIQhmAAAYQgmAEAYggkAEEYTTJom6JuH5mc6TQcAsHwlcYz+GZy6rMYEAAhDMAEAwhBMAIAwBBMAIAzBBAAIQzABAMIQTACAMAQTACAMwQQACKMOJqXJtW7rr6XxtbYIADCINmu0uUONCQAQhmACAIQhmAAAYQgmAEAYggkAEIZgAgCEIZgAAGEIJgBAGIIJABCGYAIAhFEFk7op+twUbH4oTcPWA+UPAGAQdehockcu7qkxAQDiEEwAgDAEEwAgDMEEAAhDMAEAwhBMAIAwBBMAIAzBBAAIQzABAMLYHrW61jFjFADA8lV5oxs51JgAAGEIJgBAGIIJABCGYAIAhCGYAABhCCYAQBiCCQAQhmACAIQhmAAAYQgmAEAY27kZ2L2mDfq6SdgyppQAAIY0yh5VGMllNSYAQBiCCQAQhmACAIQhmAAAYQgmAEAYggkAEIZgAgCEIZgAAGEIJgBAGIIJABBGFUya5ufbXu7nlmGb/wAAhlDnjBI6RolDjQkAEIZgAgCEIZgAAGEIJgBAGIIJABCGYAIAhCGYAABhCCYAQBiCCQAQxnbb1FrplWZf23IpAgAMJkePUeSoBtSYAABhCCYAQBiCCQAQhmACAIQhmAAAYQgmAEAYggkAEIZgAgCEIZgAAGEIJgBAGNudRug7j3t1uR4BALB8o5xRFfbq7KHGBAAIQzABAMIQTACAMAQTACAMwQQACEMwAQDCEEwAgDAEEwAgDMEEAAhDMAEAwqiDSbf9+VHzsAAAq6XGBAAIQzABAMIQTACAMAQTACAMwQQACEMwAQDCEEwAgDAEEwAgDMEEAAijBJNxw6974/JeechDAAADqHJGzhv1X6HGBAAIQzABAMIQTACAMAQTACAMwQQACEMwAQDCEEwAgDAEEwAgDMEEAAhDMAEAwtium55vmoJtHtpmYQEAhjbKHVUmUWMCAIQhmAAAYQgmAEAYggkAEIZgAgCEIZgAAGEIJgBAGIIJABCGYAIAhNEEk1mtv2oBFgAYTs4Z4wRSl9SYAABhCCYAQBiCCQAQhmACAIQhmAAAYQgmAEAYggkAEIZgAgCEIZgAAGEIJgBAGNulAdjSEuy4UdimVdhxHwBg2drQkf/qnhoTACAOwQQACEMwAQDCEEwAgDAEEwAgDMEEAAhDMAEAwhBMAIAwBBMAIAzBBAAIowST0iJsUZfK43gkAMBgujlEjQkAEIZgAgCEIZgAAGEIJgBAGIIJABCGYAIAhCGYAABhCCYAQBiCCQAQxmQw6bT22mkDFgBgEHvdqFGV1ZgAAGEIJgBAGIIJABCGYAIAhCGYAABhCCYAQBiCCQAQhmACAIQhmAAAYQgmAEAYVTDJbcHujRufL23DdtuHBQAYQps3qn7TNr0aEwAgDMEEAAhDMAEAwhBMAIAwBBMAIAzBBAAIQzABAMIQTACAMAQTACAMwQQACGO7aQG20m2WfvQAADCIOmlUj03kyD01JgBAGIIJABCGYAIAhCGYAABhCCYAQBiCCQAQhmACAIQhmAAAYQgmAEAYdTAZNfI62frrqAwAMIQmbLSZQ40JABCGYAIAhCGYAABhCCYAQBiCCQAQhmACAIQhmAAAYQgmAEAYggkAEIZgAgCEUYJJaQY2P0w1CwsAMLQ6d1SPe3tqTACAOAQTACAMwQQACEMwAQDCEEwAgDAEEwAgDMEEAAhDMAEAwhBMAIAwRsFk3NprLu11hgEAhjGdN9SYAABhCCYAQBiCCQAQhmACAIQhmAAAYQgmAEAYggkAEIZgAgCEIZgAAGEIJgBAGFUwqZugv181Trv0AMCgJnOIGhMAIAzBBAAIQzABAMIQTACAMAQTACAMwQQACEMwAQDCEEwAgDAEEwAgDMEEAAhju9vsfClqhh4AWIU2c+R+1eWeGhMAIAzBBAAIQzABAMIQTACAMAQTACAMwQQACEMwAQDCEEwAgDAEEwAgjDqYdFp7LcWmBTYAgEE1eaONHWpMAIAwBBMAIAzBBAAIQzABAMIQTACAMAQTACAMwQQACEMwAQDCEEwAgDAEEwAgjO1xy/PjdujH4wAAhtXNHWpMAIAwBBMAIAzBBAAIQzABAMIQTACAMAQTACAMwQQACEMwAQDCEEwAgDAEEwAgjBJMSlOwo/ZgNUgPAKxCN3Pk8p4aEwAgDsEEAAhDMAEAwhBMAIAwBBMAIAzBBAAIQzABAMIQTACAMAQTACCMA4KJVmABgKGN84YaEwAgDMEEAAhDMAEAwhBMAIAwBBMAIAzBBAAIQzABAMIQTACAMAQTACAMwQQACKMKJnUzsOUxPzSFUREAYAB11uikjaqoxgQACEMwAQDCEEwAgDAEEwAgDMEEAAhDMAEAwhBMAIAwBBMAIAzBBAAIQzABAMKYCCaTTdBrkB4AWIG6bfrSU2MCAIQhmAAAYQgmAEAYggkAEIZgAgCEIZgAAGEIJgBAGIIJABCGYAIAhDERTLaaft3o62gIAGA4ncihxgQACEMwAQDCEEwAgDAEEwAgDMEEAAhDMAEAwhBMAIAwBBMAIAzBBAAIQzABAMLYrpufLw/NY2tyCABgaGpMAIAwBBMAIAzBBAAIQzABAMIQTACAMAQTACAMwQQACEMwAQDCEEwAgDDqYKKRVwDgOOQM0skhakwAgDAEEwAgDMEEAAhDMAEAwhBMAIAwBBMAIAzBBAAIQzABAMIQTACAMAQTACCM7XErsHVpNNxpHhYAYEht7FBjAgCEIZgAAGEIJgBAGIIJABCGYAIAhCGYAABhCCYAQBiCCQAQhmACAIQhmAAAYWxvNYWadugBgOOyp8YEAIhDMAEAwhBMAIAwBBMAIAzBBAAIQzABAMIQTACAMAQTACAMwQQACGNbW68AQBRqTACAMAQTACAMwQQACEMwAQDCEEwAgDAEEwAgDMEEAAhDMAEAwhBMAIAwBBMAIAzBBAA4PltNv9gSTACAOAQTACAMwQQACEMwAQDCEEwAgDAEEwAgDMEEAAhDMAEAwhBMAIAwBBMAIIwZwWSv6QMADGwqdqgxAQDCEEwAgDAEEwAgDMEEAAhDMAEAwhBMAIAwBBMAIAzBBAAIQzABAMKYEUy2JnoAAKuxp8YEAIhDMAEAwhBMAIAwBBMAIAzBBAAIQzABAMIQTACAMAQTACAMwQQACEMwAQDCEEwAgOMz9U/gCCYAQBiCCQAQhmACAIQhmAAAYQgmAEAYggkAEIZgAgCEIZgAAGEIJgBAGIIJAHDs6gZgtwQTACAOwQQACEMwAQDCEEwAgDAEEwAgDMEEAAhDMAEAwhBMAIAwBBMAIAzBBAAIY7s0ATt+AAA4NmpMAIAwBBMAIAzBBAAIQzABAMIQTACAMAQTACAMwQQACEMwAQDCEEwAgDAEEwAgjO29plDb0jo9AHAscvxQYwIAhCGYAABhCCYAQBiCCQAQxnb9PddZ33ZtvggLADCkHDia0LFdF+rf5pSiNAIArECdRyaDR/NRTmdk8/vhPObO3bvpS1uSCgCwXDlf3Llztxkaq4JJJ3jkYhmsx+3c2kmf3fY1FABguXK+uLVzqxlqskjVG6WOZlTRlnduV8FEjQkAsGQ5X9zeuV3KddKoH8fVIaP80RSq3s2Xb6YPnzqdXhROAIAlybki54ubN2928ke2VQeTOnfkh2Zq09vd3U0vfvGL6d+cOVOPAAA4opwrcr7IOaOockcTPdqfC49Nh5Rr16+l39q5nf7pmbNqTgCAQ8s5IueJj+/spOs3rpdx9a9yqq7+S1uPPXZ5by9V/+Vf49Sl+8uVixcfSm943evSu+7eTW+8dy+9sZrwSDsRAGCG/Oub/H2S/GXXD506VWpKbly/UU8sYSQ/VI+ly8HkchVMpoJIM6IOJZ3xZ86cThdeeyGdPXc2PXDugXTq1HY1pcw6x9wJM/Wbu9L7CX0Nu4LBNz+Ld1AHteanRGW9j/9q5P+nWmMDb/6aH51Kzz1YwQ4Pv4ph15Df7Ic1ZwXV6Dwl/yR4Z+dW2rl9u3ynZHf3Th1AygxNGBmVq+6xy1eqHJJvhtNBpBrIf81w/dcZXz+M+rOUaX30nn3Y5fc1/Pb034GBdzneMY1mzTf/RMp30hOkvCEMqefi+2/NCl6w3vsw7DblN+9BLWt/q9Fl2kT4qPtlH0bjutOrxxxMxmGkWlC3XPpVofxNlu/rz1DmH1LPxc/bzrkG3/xY25P13qa+VrAPfQy+vzCl3HzXWc/N77+3g6+gt8Ffs967POwxWtbyy3LKX7dfPXbH5eF2fH7OKJjk23O+P1cP5Uad/+4rT03P/9Ujy98szbMW13v29V5+X7235zAGX0W/FQTbHA6winO0vn2dIAPvbv/F93xGsJdrJedP70M07DE9tuWX0dXUql/mGfW74+pyGcrlXLp8JX+UU5Wa0DGvXP+N+9O1J7OUaUPqufje2zP45sfanizaa9ZfvxWs4JCut4gHqNzE1tfwmz/wGgZffLztj7ZNvbdn6OXP0waNOoXUy23GtcMzP9KZDCa5Vx7rUFL6VaH8Nf1mvnr+dtoc9UIW1ix5OD0X33t7Bt/8Q6xg4G3qa/DXuK9gm9Pf2u/AClR3unUWbPObt5XhDL74FRzQnqvovU3Blj/vCWVs9VDW34aOesTEuDKUy6VY9S9febzKGvnmVr1llHtc0y/BI/c605pxdb8qlb+6P0sz9+J6z97zCX2t+fYcxrrvw+Dbz/5WcfjL3evkaG7XcQy8OYPv7woOZ+996D370Meo3/Lnzl1NKNua/8oymy3P4aMulPHdcXmoBJNyO883lCZ41GGk7XenVYXyN6M/y5zR88xdzjw9Z++r9/b01B7nQa1gFX0MfUyj7e/QBj+eG6C57Z0cA+/u4Mcz4MtVv6kOp/cx7b05/Z6wrMWX/Sp/3X6zt50gUgplVD1t60quMakKfcJIPWsz3DxvlvKcPnrPPuzy++q9PX0dYvGDb1Nf6/4a9BVsc1hAfY8Mo7mNxzHw5gy+vys4nMPvQ7/l996ank+Yu7/V6DKtTK5KneG63zwz9+tC1a+6NpjUIWTcbwNK/Vf9V48s00b9zvhlaJe6sN6zL2c75xp88QOvIIt2TPsKtjnrLtzrW2luZcwT7PD0fr0G3v6VnD/R9qH37EvagWoxdS1Is7ypIFKGRv3OtCuPv6W699S3n4nakul+M8/c/kzzp8zUe/Zhl99XtO3Jem/T0KK9BizXKg5/uXsxT3N7H06w4z/4/mY9VxHtNei9Pb03f/YTythu4Jju14XSL2PLiJT+P7Cy/qaBBQQzAAAAAElFTkSuQmCC;" vertex="1" parent="1">
          <mxGeometry x="1375" y="210" width="550" height="491" as="geometry" />
        </mxCell>
      </root>
    </mxGraphModel>
  </diagram>
</mxfile>
